<?xml version="1.0" standalone="no"?><!DOCTYPE svg PUBLIC "-//W3C//DTD SVG 1.1//EN" "http://www.w3.org/Graphics/SVG/1.1/DTD/svg11.dtd"><svg t="1684389896796" class="icon" viewBox="0 0 1024 1024" version="1.1" xmlns="http://www.w3.org/2000/svg" p-id="8057" xmlns:xlink="http://www.w3.org/1999/xlink" width="200" height="200"><path d="M718.769231 590.769231h-413.538462c-15.753846 0-29.538462-13.784615-29.538461-29.538462s13.784615-29.538462 29.538461-29.538461h413.538462c15.753846 0 29.538462 13.784615 29.538461 29.538461s-13.784615 29.538462-29.538461 29.538462zM718.769231 492.307692h-413.538462c-15.753846 0-29.538462-13.784615-29.538461-29.538461s13.784615-29.538462 29.538461-29.538462h413.538462c15.753846 0 29.538462 13.784615 29.538461 29.538462s-13.784615 29.538462-29.538461 29.538461zM29.538462 669.538462C13.784615 669.538462 0 655.753846 0 640v-256c0-15.753846 13.784615-29.538462 29.538462-29.538462s29.538462 13.784615 29.538461 29.538462v256c0 15.753846-13.784615 29.538462-29.538461 29.538462zM994.461538 669.538462c-15.753846 0-29.538462-13.784615-29.538461-29.538462v-256c0-15.753846 13.784615-29.538462 29.538461-29.538462s29.538462 13.784615 29.538462 29.538462v256c0 15.753846-13.784615 29.538462-29.538462 29.538462z" fill="#bfbfbf" p-id="8058"></path><path d="M265.846154 827.076923h-98.461539C129.969231 827.076923 98.461538 795.569231 98.461538 758.153846v-492.307692C98.461538 228.430769 129.969231 196.923077 167.384615 196.923077h98.461539c37.415385 0 68.923077 31.507692 68.923077 68.923077v492.307692c0 37.415385-31.507692 68.923077-68.923077 68.923077z m-98.461539-571.076923c-5.907692 0-9.846154 3.938462-9.846153 9.846154v492.307692c0 5.907692 3.938462 9.846154 9.846153 9.846154h98.461539c5.907692 0 9.846154-3.938462 9.846154-9.846154v-492.307692c0-5.907692-3.938462-9.846154-9.846154-9.846154h-98.461539zM856.615385 827.076923h-98.461539c-37.415385 0-68.923077-31.507692-68.923077-68.923077v-492.307692c0-37.415385 31.507692-68.923077 68.923077-68.923077h98.461539c37.415385 0 68.923077 31.507692 68.923077 68.923077v492.307692c0 37.415385-31.507692 68.923077-68.923077 68.923077z m-98.461539-571.076923c-5.907692 0-9.846154 3.938462-9.846154 9.846154v492.307692c0 5.907692 3.938462 9.846154 9.846154 9.846154h98.461539c5.907692 0 9.846154-3.938462 9.846153-9.846154v-492.307692c0-5.907692-3.938462-9.846154-9.846153-9.846154h-98.461539z" fill="#bfbfbf" p-id="8059"></path><path d="M177.230769 275.692308h78.769231v472.615384H177.230769zM768 275.692308h78.769231v472.615384h-78.769231z" fill="#bfbfbf" p-id="8060"></path></svg>