<?xml version="1.0" standalone="no"?><!DOCTYPE svg PUBLIC "-//W3C//DTD SVG 1.1//EN" "http://www.w3.org/Graphics/SVG/1.1/DTD/svg11.dtd"><svg t="1684389642211" class="icon" viewBox="0 0 1024 1024" version="1.1" xmlns="http://www.w3.org/2000/svg" p-id="5479" xmlns:xlink="http://www.w3.org/1999/xlink" width="200" height="200"><path d="M932.9 359.6C827.5 355.9 725 438 692.2 560.4c-32.8 122.2 14.8 244.5 107.7 294 68-57 120-134.5 144.7-226.5 24.2-89.9 19.6-182.7-11.7-268.3z m0 0" p-id="5480" fill="#cdcdcd"></path><path d="M620.1 541c35-130.3 133.9-224.3 246.5-249.4 15.8-3.5 22.3-22 13.1-35.3-60.3-86.9-148.4-149.2-251.8-176.8-103.8-27.9-211.8-17.7-307.8 28-14.1 6.8-16.5 26-4.9 36.6 84.9 78 123.4 208.8 88.6 339-34.9 130.3-133.7 224.2-246.3 249.4-15.6 3.5-22.3 22-13.1 35.2 58.3 84 145.4 148.6 251.7 177C434.8 955.1 473.7 960 512 960c66.7 0 131.5-15.3 190.2-42.9 14.8-7 18.3-26.2 6.3-37.3-84.8-78.2-123.3-208.7-88.4-338.8z m0 0" p-id="5481" fill="#cdcdcd"></path><path d="M331.7 463.7c32.8-122.3-14.9-244.7-108-294.1-69.9 58.5-120.4 136.6-144.4 226.5-24.6 92-18.4 185.1 12 268.5 105.2 3.5 207.6-78.6 240.4-200.9z m0 0" p-id="5482" fill="#cdcdcd"></path></svg>