<?xml version="1.0" standalone="no"?><!DOCTYPE svg PUBLIC "-//W3C//DTD SVG 1.1//EN" "http://www.w3.org/Graphics/SVG/1.1/DTD/svg11.dtd"><svg t="1684390440282" class="icon" viewBox="0 0 1024 1024" version="1.1" xmlns="http://www.w3.org/2000/svg" p-id="5760" xmlns:xlink="http://www.w3.org/1999/xlink" width="300" height="300"><path d="M341.333333 768h82.107734c11.264 1.962667 20.292267 11.246933 20.292266 17.066667v68.266666c0 8.96-8.157867 17.066667-17.066666 17.066667H187.733333c-8.977067 0-17.066667-8.055467-17.066666-17.066667v-68.266666c0-5.768533 9.096533-15.104 20.309333-17.066667H273.066667V307.2h-82.107734c-11.264-1.962667-20.292267-11.246933-20.292266-17.066667v-68.266666c0-8.96 8.157867-17.066667 17.066666-17.066667l51.131734-0.6144S300.885333 159.709867 307.2 153.326933L187.733333 153.6c-36.898133 0-68.266667 30.737067-68.266666 68.266667v68.266666c0 60.5184 51.2 68.266667 51.2 68.266667h51.2v358.4h-34.133334c-36.898133 3.669333-68.266667 34.4064-68.266666 68.266667v68.266666c0 37.495467 31.232 68.266667 68.266666 68.266667h238.933334c36.898133 0 68.266667-30.737067 68.266666-68.266667v-68.266666c1.416533-50.688-51.2-68.266667-51.2-68.266667h-51.2V436.8896c-16.093867 1.621333-29.627733-1.160533-44.4416-7.236267l-3.447466-1.416533c-3.072-1.297067-2.6112-1.1776-2.850134-1.1776L341.333333 768z" fill="#dbdbdb" p-id="5761"></path><path d="M624.2816 750.711467l34.133333 59.118933c4.5056 7.816533 15.530667 10.752 23.313067 6.2464l206.916267-119.466667c7.714133-4.4544 10.734933-15.547733 6.2464-23.313066l-34.133334-59.118934c-2.901333-5.034667-15.377067-8.567467-26.112-4.642133l-71.099733 41.0624-229.614933-397.704533 71.1168-41.045334c4.266667-4.232533 10.3424-4.4032 10.3424-20.48l-35.447467-63.573333c-4.471467-7.765333-15.598933-10.7008-23.313067-6.2464l-206.916266 119.466667c-7.7824 4.488533-10.752 15.5136-6.2464 23.313066l34.133333 59.118934c2.884267 5.000533 15.4112 8.533333 26.112 4.625066l71.099733-41.045333 229.614934 397.704533-71.099734 41.045334c-8.738133 7.304533-9.045333 24.9344-9.045333 24.9344z m158.0032-170.052267l29.559467-17.066667c33.911467-15.342933 76.3392-4.3008 93.252266 24.9856l34.133334 59.118934c18.773333 32.512 6.9632 74.8032-24.9856 93.252266l-206.916267 119.466667c-32.085333 18.517333-74.513067 7.509333-93.269333-24.9856l-34.133334-59.118933c-16.913067-29.320533-5.12-71.611733 25.002667-93.252267l29.559467-17.066667L458.205867 358.4c-48.469333 31.9488-94.976 50.517333-125.559467-2.474667l-34.133333-59.118933c-32.836267-56.8832-22.698667-78.8992 34.133333-110.353067L507.323733 85.504c47.906133-24.405333 77.277867-48.708267 110.097067 8.157867l36.642133 61.661866c30.600533 52.992 34.594133 69.461333-20.292266 104.448-19.080533 10.581333-24.456533 15.2576-24.456534 15.2576l172.970667 305.629867z" fill="#dbdbdb" p-id="5762"></path></svg>