<?xml version="1.0" standalone="no"?><!DOCTYPE svg PUBLIC "-//W3C//DTD SVG 1.1//EN" "http://www.w3.org/Graphics/SVG/1.1/DTD/svg11.dtd"><svg t="1710166895641" class="icon" viewBox="0 0 1024 1024" version="1.1" xmlns="http://www.w3.org/2000/svg" p-id="5987" xmlns:xlink="http://www.w3.org/1999/xlink" width="144" height="144"><path d="M737.281024 0.997376l225.277952 255.756288 0 63.248384L962.558976 768c0 65.880064-60.635136 127.997952-128.731136 127.997952l-32.18432-0.339968 0 8.589312c0 65.880064-60.637184 119.752704-128.731136 119.752704L190.170112 1024C122.074112 1024 61.438976 961.875968 61.438976 896L61.438976 255.997952c0-65.878016 55.631872-127.121408 123.727872-127.121408L222.354432 128l0.43008-7.708672C222.784512 54.413312 282.991616 0 351.085568 0 351.085568 0 733.289472 0.997376 737.281024 0.997376zM222.354432 768 222.354432 192l-35.241984 1.040384c-33.779712 0-61.30688 30.359552-61.30688 62.957568L125.805568 896c0 32.602112 30.584832 64 64.366592 64l482.742272 0c33.775616 0 64.649216-26.066944 64.649216-58.669056l-0.002048-5.668864L351.085568 896C282.991616 896 222.354432 833.882112 222.354432 768zM737.281024 64.940032l0 0.04096c0 62.199808 0 95.864832 0 95.864832 0 33.23904 30.08512 95.905792 64.364544 95.905792l96.546816 0L737.281024 64.940032zM898.194432 320.002048c-62.355456 0-96.548864 0-96.548864 0-68.558848 0-128.729088-60.717056-128.729088-127.188992 0 0-0.516096-55.103488-0.002048-128.815104L351.085568 63.997952c-33.779712 0-64.366592 31.399936-64.366592 64L286.718976 768c0 32.598016 30.584832 64 64.366592 64l482.742272 0c33.777664 0 64.366592-31.401984 64.366592-64L898.194432 320.002048zM737.278976 672.344064 447.634432 672.344064c-17.774592 0-32.18432-14.313472-32.18432-31.965184 0-17.657856 14.40768-31.971328 32.18432-31.971328L737.278976 608.407552c17.77664 0 32.18432 14.313472 32.18432 31.971328C769.463296 658.030592 755.055616 672.344064 737.278976 672.344064zM737.278976 512.50176 447.634432 512.50176c-17.774592 0-32.18432-14.31552-32.18432-31.963136 0-17.661952 14.40768-31.975424 32.18432-31.975424L737.278976 448.5632c17.77664 0 32.18432 14.31552 32.18432 31.975424C769.463296 498.18624 755.055616 512.50176 737.278976 512.50176z" p-id="5988"></path></svg>