<?xml version="1.0" standalone="no"?><!DOCTYPE svg PUBLIC "-//W3C//DTD SVG 1.1//EN" "http://www.w3.org/Graphics/SVG/1.1/DTD/svg11.dtd"><svg t="1684390364803" class="icon" viewBox="0 0 1024 1024" version="1.1" xmlns="http://www.w3.org/2000/svg" p-id="4620" xmlns:xlink="http://www.w3.org/1999/xlink" width="300" height="300"><path d="M834.063515 1023.410424C834.063515 1023.410424 188.974545 1023.410424 188.974545 1023.410424 136.067879 1023.410424 93.028848 984.684606 93.028848 937.084121 93.028848 937.084121 93.028848 86.543515 93.028848 86.543515 93.028848 38.94303 136.067879 0.217212 188.974545 0.217212 188.974545 0.217212 701.564121 0.217212 701.564121 0.217212 701.564121 0.217212 930.040242 187.888485 930.040242 187.888485 930.040242 187.888485 930.040242 937.084121 930.040242 937.084121 930.040242 984.684606 887.001212 1023.410424 834.063515 1023.410424ZM188.974545 63.115636C171.03903 63.115636 155.896242 73.821091 155.896242 86.543515 155.896242 86.543515 155.896242 937.084121 155.896242 937.084121 155.896242 949.775515 171.03903 960.512 188.974545 960.512 188.974545 960.512 834.063515 960.512 834.063515 960.512 851.99903 960.512 867.141818 949.775515 867.141818 937.084121 867.141818 937.084121 867.141818 229.127758 867.141818 229.127758 867.141818 229.127758 690.300121 229.127758 690.300121 229.127758 690.300121 229.127758 690.300121 72.331636 690.300121 72.331636 690.300121 72.331636 679.067152 63.115636 679.067152 63.115636 679.067152 63.115636 188.974545 63.115636 188.974545 63.115636ZM790.372848 361.875394C790.372848 372.301576 781.932606 380.741818 771.506424 380.741818 771.506424 380.741818 494.871273 380.741818 494.871273 380.741818 484.445091 380.741818 476.004848 372.301576 476.004848 361.875394 476.004848 351.449212 484.445091 343.00897 494.871273 343.00897 494.871273 343.00897 771.506424 343.00897 771.506424 343.00897 781.932606 343.00897 790.372848 351.449212 790.372848 361.875394ZM357.34497 456.579879C357.34497 456.579879 310.085818 456.579879 310.085818 456.579879 270.894545 456.579879 239.026424 424.711758 239.026424 385.520485 239.026424 385.520485 239.026424 338.261333 239.026424 338.261333 239.026424 299.070061 270.894545 267.201939 310.085818 267.201939 310.085818 267.201939 357.34497 267.201939 357.34497 267.201939 396.505212 267.201939 428.373333 299.070061 428.373333 338.261333 428.373333 338.261333 428.373333 385.520485 428.373333 385.520485 428.373333 424.711758 396.505212 456.579879 357.34497 456.579879ZM390.640485 338.261333C390.640485 319.891394 375.714909 304.934788 357.34497 304.934788 357.34497 304.934788 310.085818 304.934788 310.085818 304.934788 291.684848 304.934788 276.759273 319.891394 276.759273 338.261333 276.759273 338.261333 276.759273 385.520485 276.759273 385.520485 276.759273 403.921455 291.684848 418.84703 310.085818 418.84703 310.085818 418.84703 357.34497 418.84703 357.34497 418.84703 375.714909 418.84703 390.640485 403.921455 390.640485 385.520485 390.640485 385.520485 390.640485 338.261333 390.640485 338.261333ZM271.204848 524.474182C271.204848 524.474182 767.875879 524.474182 767.875879 524.474182 778.302061 524.474182 786.742303 532.914424 786.742303 543.340606 786.742303 553.766788 778.302061 562.20703 767.875879 562.20703 767.875879 562.20703 271.204848 562.20703 271.204848 562.20703 260.778667 562.20703 252.338424 553.766788 252.338424 543.340606 252.338424 532.914424 260.778667 524.474182 271.204848 524.474182ZM271.204848 649.18497C271.204848 649.18497 767.875879 649.18497 767.875879 649.18497 778.302061 649.18497 786.742303 657.625212 786.742303 668.051394 786.742303 678.446545 778.302061 686.917818 767.875879 686.917818 767.875879 686.917818 271.204848 686.917818 271.204848 686.917818 260.778667 686.917818 252.338424 678.446545 252.338424 668.051394 252.338424 657.625212 260.778667 649.18497 271.204848 649.18497ZM271.204848 780.163879C271.204848 780.163879 547.84 780.163879 547.84 780.163879 558.266182 780.163879 566.706424 788.604121 566.706424 799.030303 566.706424 809.425455 558.266182 817.896727 547.84 817.896727 547.84 817.896727 271.204848 817.896727 271.204848 817.896727 260.778667 817.896727 252.338424 809.425455 252.338424 799.030303 252.338424 788.604121 260.778667 780.163879 271.204848 780.163879Z" fill="#dbdbdb" p-id="4621"></path></svg>