<?xml version="1.0" standalone="no"?><!DOCTYPE svg PUBLIC "-//W3C//DTD SVG 1.1//EN" "http://www.w3.org/Graphics/SVG/1.1/DTD/svg11.dtd"><svg t="1684390485550" class="icon" viewBox="0 0 1233 1024" version="1.1" xmlns="http://www.w3.org/2000/svg" p-id="7932" xmlns:xlink="http://www.w3.org/1999/xlink" width="361.23046875" height="300"><path d="M471.72028 324.923077H176.335664c-15.753846 0-29.538462-13.784615-29.538461-29.538462S160.581818 265.846154 176.335664 265.846154h295.384616c15.753846 0 29.538462 13.784615 29.538461 29.538461 0 17.723077-13.784615 29.538462-29.538461 29.538462zM471.72028 541.538462H176.335664c-15.753846 0-29.538462-13.784615-29.538461-29.538462s13.784615-29.538462 29.538461-29.538462h295.384616c15.753846 0 29.538462 13.784615 29.538461 29.538462 0 17.723077-13.784615 29.538462-29.538461 29.538462zM471.72028 758.153846H176.335664c-15.753846 0-29.538462-13.784615-29.538461-29.538461s13.784615-29.538462 29.538461-29.538462h295.384616c15.753846 0 29.538462 13.784615 29.538461 29.538462 0 17.723077-13.784615 29.538462-29.538461 29.538461zM914.797203 669.538462h-196.923077c-15.753846 0-29.538462-13.784615-29.538462-29.538462s13.784615-29.538462 29.538462-29.538462h196.923077c15.753846 0 29.538462 13.784615 29.538461 29.538462 0 17.723077-13.784615 29.538462-29.538461 29.538462zM914.797203 807.384615h-196.923077c-15.753846 0-29.538462-13.784615-29.538462-29.538461s13.784615-29.538462 29.538462-29.538462h196.923077c15.753846 0 29.538462 13.784615 29.538461 29.538462 0 17.723077-13.784615 29.538462-29.538461 29.538461z" fill="#e6e6e6" p-id="7933"></path><path d="M639.104895 1024h-630.153846V108.307692c0-59.076923 49.230769-108.307692 108.307692-108.307692h413.538462c59.076923 0 108.307692 49.230769 108.307692 108.307692v915.692308z m-571.076923-59.076923h512V108.307692c0-27.569231-21.661538-49.230769-49.230769-49.230769H117.258741C89.68951 59.076923 68.027972 80.738462 68.027972 108.307692v856.615385z" fill="#e6e6e6" p-id="7934"></path><path d="M1052.643357 1024h-472.615385v-630.153846H944.335664c59.076923 0 108.307692 49.230769 108.307693 108.307692v226.461539c0 15.753846-13.784615 29.538462-29.538462 29.538461s-29.538462-13.784615-29.538461-29.538461V502.153846c0-27.569231-21.661538-49.230769-49.23077-49.230769H639.104895v512h354.461539v-25.6c0-15.753846 13.784615-29.538462 29.538461-29.538462s29.538462 13.784615 29.538462 29.538462v84.676923z" fill="#e6e6e6" p-id="7935"></path></svg>