<?xml version="1.0" standalone="no"?><!DOCTYPE svg PUBLIC "-//W3C//DTD SVG 1.1//EN" "http://www.w3.org/Graphics/SVG/1.1/DTD/svg11.dtd"><svg t="1684389630938" class="icon" viewBox="0 0 1026 1024" version="1.1" xmlns="http://www.w3.org/2000/svg" p-id="5213" width="200.390625" height="200" xmlns:xlink="http://www.w3.org/1999/xlink"><path d="M2.7648 51.2v921.6a51.2 51.2 0 0 0 51.2 51.2h409.6a51.2 51.2 0 1 0 0-102.4h-307.2a51.2 51.2 0 0 1-51.2-51.2V153.6a51.2 51.2 0 0 1 51.2-51.2h716.8a51.2 51.2 0 0 1 51.2 51.2v307.2a51.2 51.2 0 0 0 102.4 0V51.2a51.2 51.2 0 0 0-51.2-51.2h-921.6a51.2 51.2 0 0 0-51.2 51.2" fill="#cdcdcd" p-id="5214"></path><path d="M156.3648 204.8v614.4a51.2 51.2 0 0 0 51.2 51.2h256a51.2 51.2 0 1 0 0-102.4h-153.6a51.2 51.2 0 0 1-51.2-51.2V307.2a51.2 51.2 0 0 1 51.2-51.2h409.2928a51.2 51.2 0 0 1 51.2 51.2v153.6a51.2 51.2 0 0 0 102.4 0V204.8a51.2 51.2 0 0 0-51.2-51.2H207.7184a51.2 51.2 0 0 0-51.2 51.2" fill="#cdcdcd" p-id="5215"></path><path d="M821.9648 716.8h-204.8a51.2 51.2 0 0 1 0-102.4h204.8a51.2 51.2 0 0 1 0 102.4" fill="#cdcdcd" p-id="5216"></path><path d="M972.8 870.4h-204.8a51.2 51.2 0 0 1 0-102.4h204.8a51.2 51.2 0 0 1 0 102.4" fill="#cdcdcd" p-id="5217"></path></svg>